<svg xmlns="http://www.w3.org/2000/svg" width="1280" height="241" fill="none" viewBox="0 0 1280 241">
  <path fill="#333" fill-opacity=".5" fill-rule="evenodd" d="M924.723.897h-1.094v35.575H984.569V.897H924.723zm1.094 33.387V3.085h56.564v31.199h-56.564zm57.811 16.134v-1.215l-1.208.127-56.637 5.973-.978.103-.001.983-.235 136.961-.002 1.096h59.061V50.418zm-56.869 141.84l.231-134.882 54.45-5.743v140.625h-54.681zM255.171 50.416V49.2l-1.209.128-56.577 5.973-.98.103v185.494H255.171v-45.69a115.947 115.947 0 0020.579 1.956h.006c26 0 46.622-8.281 60.747-22.25 14.124-13.967 21.659-33.528 21.659-55.911 0-42.395-27.741-69.666-58.88-69.681-10.048-.466-19.997 2.056-28.338 7.197-6.8 4.19-12.234 9.936-15.773 16.633V50.416zm16.921 7.965c7.962-4.906 17.483-7.324 27.114-6.873l.025.002h.026c29.717 0 56.717 26.059 56.717 67.493 0 21.884-7.359 40.856-21.009 54.356-13.649 13.497-33.682 21.616-59.205 21.617a113.72 113.72 0 01-21.47-2.166l-1.307-.259v46.158h-54.39V57.374l54.39-5.743V84.32l2.119-5.68c3.071-8.234 9.029-15.352 16.99-20.258zm-10.377 24.54h-.006c-2.643.014-5.276.29-7.854.824l.222 1.07h-1.094v82.79l.373.327c4.94 4.334 11.504 6.77 18.336 6.832h.01c8.007 0 14.512-3.306 18.977-9.516 4.432-6.164 6.793-15.098 6.793-26.298 0-16.783-3.176-30.741-9.233-40.542-6.086-9.85-15.084-15.486-26.524-15.486zm-6.544 83.686v-80.89a37.615 37.615 0 016.546-.607c10.59 0 18.923 5.164 24.66 14.448 5.767 9.332 8.907 22.84 8.907 39.392 0 10.933-2.31 19.359-6.382 25.021-4.038 5.616-9.87 8.603-17.195 8.605-6.16-.057-12.053-2.197-16.536-5.969zM2.188 125.563c0-40.288 34.633-74.053 87.033-74.053 23.178 0 43.923 6.036 58.847 17.734 14.894 11.674 24.073 29.046 24.073 51.946 0 40.022-34.28 73.573-86.504 73.573h-.005c-23.387.106-44.263-5.812-59.267-17.418-14.97-11.58-24.177-28.884-24.177-51.782zm87.033-76.24C35.869 49.322 0 83.824 0 125.562c0 23.556 9.505 41.506 25.027 53.513 15.488 11.98 36.881 17.982 60.612 17.875 53.175-.001 88.69-34.29 88.69-75.761 0-23.554-9.474-41.568-24.911-53.668-15.406-12.076-36.668-18.2-60.197-18.2zM85.639 196.95h-.002v-1.094l.005 1.094h-.003zm-.237-123.309c-6.94 0-13.002 3.608-17.272 10.965-4.24 7.308-6.735 18.327-6.735 33.33 0 17.693 2.34 31.342 6.89 40.609 4.582 9.329 11.465 14.298 20.407 14.298 6.935 0 13.068-3.602 17.413-10.915 4.318-7.268 6.888-18.209 6.888-33.059 0-17.856-2.414-31.586-7.04-40.894-4.656-9.367-11.612-14.334-20.551-14.334zm-21.819 44.295c0-14.811 2.47-25.392 6.44-32.231 3.94-6.79 9.335-9.876 15.379-9.876 7.923 0 14.215 4.314 18.592 13.12 4.407 8.866 6.811 22.202 6.811 39.92 0 14.644-2.542 25.143-6.581 31.941-4.013 6.754-9.483 9.845-15.532 9.845-7.92 0-14.138-4.31-18.442-13.075-4.335-8.826-6.667-22.084-6.667-39.644zM440.53 49.2v23.952c3.54-6.697 8.974-12.444 15.774-16.633 8.341-5.14 18.29-7.663 28.338-7.197 31.138.015 58.88 27.286 58.88 69.681 0 22.383-7.535 41.944-21.659 55.911-14.126 13.969-34.747 22.25-60.747 22.25h-.006a115.949 115.949 0 01-20.58-1.956v45.69h-58.765V55.404l.979-.103 56.578-5.973 1.208-.128zm44.035 2.308c-9.63-.45-19.151 1.967-27.114 6.873-7.961 4.906-13.918 12.024-16.99 20.257l-2.119 5.68V51.632l-54.389 5.743v181.335h54.389v-46.158l1.307.259a113.736 113.736 0 0021.47 2.166c25.523-.001 45.557-8.12 59.205-21.617 13.651-13.5 21.01-32.472 21.01-54.356 0-41.434-27.001-67.493-56.718-67.493h-.025l-.026-.002zm-37.497 31.414h.006c11.44 0 20.438 5.637 26.524 15.486 6.057 9.801 9.233 23.759 9.233 40.542 0 11.2-2.36 20.134-6.793 26.298-4.465 6.21-10.969 9.516-18.976 9.516h-.01c-6.832-.062-13.396-2.498-18.337-6.832l-.373-.327V84.816h1.094l-.221-1.071a39.763 39.763 0 017.853-.823zm-6.538 2.796v80.889c4.484 3.772 10.377 5.912 16.537 5.969 7.325-.002 13.156-2.989 17.195-8.605 4.071-5.662 6.381-14.088 6.381-25.021 0-16.552-3.139-30.06-8.906-39.392-5.737-9.284-14.07-14.447-24.66-14.448-2.2.011-4.392.215-6.547.608zm124.142 39.845c0-40.288 34.632-74.053 87.033-74.053 23.178 0 43.923 6.036 58.847 17.734 14.894 11.674 24.073 29.046 24.073 51.946 0 40.023-34.281 73.573-86.504 73.573h-.005c-23.446.106-44.322-5.813-59.31-17.418-14.955-11.579-24.134-28.882-24.134-51.782zm87.033-76.24c-53.352 0-89.221 34.502-89.221 76.24 0 23.555 9.475 41.505 24.982 53.512 15.474 11.982 36.868 17.983 60.657 17.876 53.175 0 88.69-34.29 88.69-75.761 0-23.553-9.474-41.568-24.911-53.668-15.406-12.075-36.668-18.2-60.197-18.2zm-3.582 147.628h-.002v-1.094l.005 1.094h-.003zm-.237-123.309c-6.94 0-13.002 3.608-17.272 10.965-4.241 7.308-6.735 18.327-6.735 33.33 0 17.693 2.339 31.342 6.89 40.609 4.582 9.329 11.465 14.298 20.407 14.298 6.907 0 13.039-3.603 17.391-10.914 4.325-7.268 6.91-18.209 6.91-33.06 0-17.856-2.414-31.586-7.04-40.894-4.656-9.367-11.612-14.334-20.551-14.334zm-21.819 44.295c0-14.811 2.47-25.392 6.44-32.231 3.94-6.79 9.335-9.876 15.379-9.876 7.922 0 14.215 4.314 18.592 13.12 4.406 8.866 6.811 22.202 6.811 39.92 0 14.643-2.556 25.142-6.603 31.941-4.02 6.755-9.491 9.845-15.51 9.845-7.92 0-14.138-4.31-18.443-13.075-4.335-8.826-6.666-22.084-6.666-39.644zm151.908-52.382c-11.253 8.522-16.956 20.204-16.956 32.968 0 10.619 4.007 19.081 11.134 25.784 7.157 6.731 17.498 11.719 30.182 15.241l.007.002 17.608 4.635h.002c7.363 1.918 13.106 3.809 17.007 6.498 1.972 1.36 3.506 2.943 4.54 4.865 1.036 1.923 1.536 4.121 1.536 6.656 0 3.956-1.647 7.422-4.774 9.874-3.1 2.431-7.573 3.805-13.168 3.807a22.895 22.895 0 01-8.528-1.431c-2.709-1.014-5.161-2.533-7.197-4.466-2.037-1.934-3.612-4.239-4.617-6.772a17.684 17.684 0 01-1.211-7.881v-1.771l-50.001 5.75c2.886 13.154 11.548 21.977 23.384 27.574 12.216 5.778 27.766 8.089 43.633 8.089 24.782 0 43.636-5.765 56.262-14.68 12.61-8.904 19.02-20.949 19.02-33.667 0-11.976-4.612-20.404-12.793-26.72-8.252-6.371-20.177-10.622-34.83-14.027l-16.563-3.839-.002-.001c-7.926-1.806-13.675-4.323-17.462-7.412-3.815-3.11-5.647-6.811-5.654-10.86a12.07 12.07 0 011.079-5.45 13.085 13.085 0 013.449-4.544 14.567 14.567 0 015.163-2.816 15.507 15.507 0 015.905-.625c4.824.01 9.122 1.38 12.2 4.742 3.073 3.356 4.767 8.52 4.767 15.766v1.497l48.864-5.45c-1.625-12.302-9.389-21.016-20.425-26.73-11.383-5.893-26.176-8.544-40.99-8.544-22.396 0-39.297 5.401-50.571 13.938zm-1.321-1.744c11.757-8.903 29.167-14.382 51.892-14.382 15.031 0 30.202 2.683 41.996 8.79 11.823 6.12 20.323 15.733 21.721 29.527l.11 1.078-1.077.12-51.172 5.707-1.216.135v-3.942c0-6.942-1.625-11.485-4.192-14.288-2.552-2.787-6.196-4.032-10.635-4.032h-.049l-.049-.004a13.33 13.33 0 00-5.114.532 12.387 12.387 0 00-4.388 2.39 10.897 10.897 0 00-2.875 3.782 9.888 9.888 0 00-.885 4.483l.001.021v.022c0 3.304 1.458 6.421 4.848 9.186 3.424 2.791 8.808 5.207 16.568 6.974l.004.001 16.568 3.84c14.723 3.422 27.033 7.757 35.672 14.427 8.71 6.724 13.644 15.788 13.644 28.452 0 13.523-6.837 26.198-19.946 35.454-13.092 9.245-32.426 15.081-57.524 15.081-16.035 0-31.946-2.329-44.568-8.299-12.658-5.986-22.052-15.665-24.835-30.298l-.22-1.156 1.17-.135 52.406-6.027 1.219-.14V155.42l-.003.043a15.508 15.508 0 001.059 6.946c.885 2.226 2.275 4.269 4.09 5.992 1.815 1.723 4.014 3.089 6.458 4.003a20.676 20.676 0 007.722 1.293h.026c5.267 0 9.22-1.293 11.831-3.341 2.587-2.028 3.936-4.855 3.936-8.152 0-2.238-.439-4.067-1.274-5.619-.837-1.554-2.105-2.893-3.856-4.1-3.546-2.445-8.936-4.26-16.318-6.182l-.003-.001-17.625-4.64-.007-.002-.007-.002c-12.87-3.572-23.589-8.69-31.103-15.757-7.547-7.098-11.824-16.129-11.824-27.377 0-13.477 6.047-25.794 17.824-34.713zm310.026-53.17v41.402H1126.51V80.898h-39.71V194.34H1027.97V81.005h-21.38v-1.09l-.12-26.773-.01-1.099h21.39V16.9l.98-.104 56.64-6.027 1.21-.128zm-56.64 8.227V54.23h-21.38l.11 24.586h21.39V192.151h54.45V78.71h39.71V54.232H1084.49V13.073l-54.45 5.794zm101.23 106.695c0-47.281 36.75-74.053 76.28-74.053 16.6 0 33.31 3.196 46.06 11.141 12.49 7.79 21.25 20.178 22.36 38.839l-90.98 25.206-1.24.345.54 1.17c11.09 23.857 38.53 29.321 55.2 29.327 13.32.616 26.51-2.554 37.75-9.053-2.05 12.732-8.36 24.036-19.01 32.308-11.28 8.764-27.51 14.183-48.86 14.183-41.76 0-78.1-26.721-78.1-69.413zm76.28-76.24c-40.49 0-78.47 27.521-78.47 76.24 0 44.243 37.69 71.602 80.29 71.602 21.72 0 38.45-5.514 50.2-14.644 11.76-9.137 18.45-21.835 20.16-36.027l.27-2.274-1.94 1.217c-11.27 7.062-24.8 10.552-38.5 9.914l-.02-.001h-.03c-16.18 0-41.8-5.236-52.67-26.896l90.56-25.09.85-.233-.04-.872c-.93-19.892-10.17-33.188-23.45-41.464-13.22-8.241-30.38-11.473-47.21-11.473zm-4.23 23.786c-7.63 0-13.81 3.76-17.93 9.718-4.11 5.936-6.17 14.04-5.72 22.846l1.09-.056v1.094H1224.21l.11-.967c1.37-11.621-.27-19.803-4.17-25.102-3.92-5.342-9.96-7.533-16.83-7.533zm18.94 31.414h-40.45c-.22-8.007 1.76-15.212 5.38-20.45 3.77-5.443 9.31-8.776 16.13-8.776 6.41 0 11.68 2.023 15.07 6.64 3.33 4.528 5 11.758 3.87 22.586z" clip-rule="evenodd"/>
</svg>
